<mxfile host="Electron" agent="Mozilla/5.0 (Windows NT 10.0; Win64; x64) AppleWebKit/537.36 (KHTML, like Gecko) draw.io/28.1.2 Chrome/138.0.7204.243 Electron/37.4.0 Safari/537.36" version="28.1.2">
  <diagram name="Page-1" id="wkmiiW-0e90IPWFJySRs">
    <mxGraphModel dx="659" dy="485" grid="1" gridSize="10" guides="1" tooltips="1" connect="1" arrows="1" fold="1" page="1" pageScale="1" pageWidth="827" pageHeight="1169" math="0" shadow="0">
      <root>
        <mxCell id="0" />
        <mxCell id="1" parent="0" />
        <mxCell id="5uK22Rdv5_EadQjcborz-1" value="" style="rounded=0;whiteSpace=wrap;html=1;" vertex="1" parent="1">
          <mxGeometry x="120" y="20" width="300" height="280" as="geometry" />
        </mxCell>
        <mxCell id="5uK22Rdv5_EadQjcborz-2" value="" style="rounded=1;whiteSpace=wrap;html=1;arcSize=6;" vertex="1" parent="1">
          <mxGeometry x="120" y="50" width="300" height="40" as="geometry" />
        </mxCell>
        <mxCell id="5uK22Rdv5_EadQjcborz-4" value="&lt;u&gt;&lt;b&gt;&lt;font face=&quot;Georgia&quot;&gt;Home&lt;/font&gt;&lt;/b&gt;&lt;/u&gt;" style="text;html=1;align=center;verticalAlign=middle;whiteSpace=wrap;rounded=0;" vertex="1" parent="1">
          <mxGeometry x="120" y="70" width="40" height="10" as="geometry" />
        </mxCell>
        <mxCell id="5uK22Rdv5_EadQjcborz-6" value="&lt;b&gt;&lt;u&gt;&lt;font face=&quot;Georgia&quot;&gt;Contact&lt;/font&gt;&lt;/u&gt;&lt;/b&gt;" style="text;html=1;align=center;verticalAlign=middle;whiteSpace=wrap;rounded=0;" vertex="1" parent="1">
          <mxGeometry x="230" y="70" width="30" height="10" as="geometry" />
        </mxCell>
        <mxCell id="5uK22Rdv5_EadQjcborz-9" value="&lt;b&gt;&lt;u&gt;&lt;font face=&quot;Georgia&quot;&gt;About&lt;/font&gt;&lt;/u&gt;&lt;/b&gt;" style="text;html=1;align=center;verticalAlign=middle;whiteSpace=wrap;rounded=0;" vertex="1" parent="1">
          <mxGeometry x="170" y="70" width="40" height="10" as="geometry" />
        </mxCell>
        <mxCell id="5uK22Rdv5_EadQjcborz-10" value="&lt;font style=&quot;font-size: 21px;&quot; face=&quot;Georgia&quot;&gt;Wheels on Fire&lt;/font&gt;" style="text;html=1;align=center;verticalAlign=middle;whiteSpace=wrap;rounded=0;" vertex="1" parent="1">
          <mxGeometry x="195" y="20" width="150" height="30" as="geometry" />
        </mxCell>
        <mxCell id="5uK22Rdv5_EadQjcborz-12" value="LOGO" style="text;html=1;align=center;verticalAlign=middle;whiteSpace=wrap;rounded=0;" vertex="1" parent="1">
          <mxGeometry x="120" y="20" width="60" height="30" as="geometry" />
        </mxCell>
        <mxCell id="5uK22Rdv5_EadQjcborz-13" value="LOGO" style="text;html=1;align=center;verticalAlign=middle;whiteSpace=wrap;rounded=0;" vertex="1" parent="1">
          <mxGeometry x="354" y="20" width="60" height="30" as="geometry" />
        </mxCell>
        <mxCell id="5uK22Rdv5_EadQjcborz-15" value="" style="rounded=0;whiteSpace=wrap;html=1;" vertex="1" parent="1">
          <mxGeometry x="440" y="20" width="300" height="280" as="geometry" />
        </mxCell>
        <mxCell id="5uK22Rdv5_EadQjcborz-16" value="" style="rounded=1;whiteSpace=wrap;html=1;arcSize=6;" vertex="1" parent="1">
          <mxGeometry x="440" y="50" width="300" height="40" as="geometry" />
        </mxCell>
        <mxCell id="5uK22Rdv5_EadQjcborz-17" value="&lt;u&gt;&lt;b&gt;&lt;font face=&quot;Georgia&quot;&gt;Home&lt;/font&gt;&lt;/b&gt;&lt;/u&gt;" style="text;html=1;align=center;verticalAlign=middle;whiteSpace=wrap;rounded=0;" vertex="1" parent="1">
          <mxGeometry x="440" y="70" width="40" height="10" as="geometry" />
        </mxCell>
        <mxCell id="5uK22Rdv5_EadQjcborz-18" value="&lt;b&gt;&lt;u&gt;&lt;font face=&quot;Georgia&quot;&gt;Contact&lt;/font&gt;&lt;/u&gt;&lt;/b&gt;" style="text;html=1;align=center;verticalAlign=middle;whiteSpace=wrap;rounded=0;" vertex="1" parent="1">
          <mxGeometry x="550" y="70" width="30" height="10" as="geometry" />
        </mxCell>
        <mxCell id="5uK22Rdv5_EadQjcborz-19" value="&lt;b&gt;&lt;u&gt;&lt;font face=&quot;Georgia&quot;&gt;About&lt;/font&gt;&lt;/u&gt;&lt;/b&gt;" style="text;html=1;align=center;verticalAlign=middle;whiteSpace=wrap;rounded=0;" vertex="1" parent="1">
          <mxGeometry x="490" y="70" width="40" height="10" as="geometry" />
        </mxCell>
        <mxCell id="5uK22Rdv5_EadQjcborz-20" value="&lt;font style=&quot;font-size: 21px;&quot; face=&quot;Georgia&quot;&gt;Wheels on Fire&lt;/font&gt;" style="text;html=1;align=center;verticalAlign=middle;whiteSpace=wrap;rounded=0;" vertex="1" parent="1">
          <mxGeometry x="515" y="20" width="150" height="30" as="geometry" />
        </mxCell>
        <mxCell id="5uK22Rdv5_EadQjcborz-21" value="LOGO" style="text;html=1;align=center;verticalAlign=middle;whiteSpace=wrap;rounded=0;" vertex="1" parent="1">
          <mxGeometry x="440" y="20" width="60" height="30" as="geometry" />
        </mxCell>
        <mxCell id="5uK22Rdv5_EadQjcborz-22" value="LOGO" style="text;html=1;align=center;verticalAlign=middle;whiteSpace=wrap;rounded=0;" vertex="1" parent="1">
          <mxGeometry x="674" y="20" width="60" height="30" as="geometry" />
        </mxCell>
        <mxCell id="5uK22Rdv5_EadQjcborz-24" value="" style="rounded=0;whiteSpace=wrap;html=1;" vertex="1" parent="1">
          <mxGeometry x="120" y="305" width="300" height="280" as="geometry" />
        </mxCell>
        <mxCell id="5uK22Rdv5_EadQjcborz-25" value="" style="rounded=1;whiteSpace=wrap;html=1;arcSize=6;" vertex="1" parent="1">
          <mxGeometry x="120" y="340" width="300" height="40" as="geometry" />
        </mxCell>
        <mxCell id="5uK22Rdv5_EadQjcborz-26" value="&lt;u&gt;&lt;b&gt;&lt;font face=&quot;Georgia&quot;&gt;Home&lt;/font&gt;&lt;/b&gt;&lt;/u&gt;" style="text;html=1;align=center;verticalAlign=middle;whiteSpace=wrap;rounded=0;" vertex="1" parent="1">
          <mxGeometry x="120" y="360" width="40" height="10" as="geometry" />
        </mxCell>
        <mxCell id="5uK22Rdv5_EadQjcborz-27" value="&lt;b&gt;&lt;u&gt;&lt;font face=&quot;Georgia&quot;&gt;Contact&lt;/font&gt;&lt;/u&gt;&lt;/b&gt;" style="text;html=1;align=center;verticalAlign=middle;whiteSpace=wrap;rounded=0;" vertex="1" parent="1">
          <mxGeometry x="230" y="360" width="30" height="10" as="geometry" />
        </mxCell>
        <mxCell id="5uK22Rdv5_EadQjcborz-28" value="&lt;b&gt;&lt;u&gt;&lt;font face=&quot;Georgia&quot;&gt;About&lt;/font&gt;&lt;/u&gt;&lt;/b&gt;" style="text;html=1;align=center;verticalAlign=middle;whiteSpace=wrap;rounded=0;" vertex="1" parent="1">
          <mxGeometry x="170" y="360" width="40" height="10" as="geometry" />
        </mxCell>
        <mxCell id="5uK22Rdv5_EadQjcborz-29" value="&lt;font style=&quot;font-size: 21px;&quot; face=&quot;Georgia&quot;&gt;Wheels on Fire&lt;/font&gt;" style="text;html=1;align=center;verticalAlign=middle;whiteSpace=wrap;rounded=0;" vertex="1" parent="1">
          <mxGeometry x="195" y="310" width="150" height="30" as="geometry" />
        </mxCell>
        <mxCell id="5uK22Rdv5_EadQjcborz-30" value="LOGO" style="text;html=1;align=center;verticalAlign=middle;whiteSpace=wrap;rounded=0;" vertex="1" parent="1">
          <mxGeometry x="120" y="310" width="60" height="30" as="geometry" />
        </mxCell>
        <mxCell id="5uK22Rdv5_EadQjcborz-31" value="LOGO" style="text;html=1;align=center;verticalAlign=middle;whiteSpace=wrap;rounded=0;" vertex="1" parent="1">
          <mxGeometry x="354" y="310" width="60" height="30" as="geometry" />
        </mxCell>
        <mxCell id="5uK22Rdv5_EadQjcborz-40" value="Footer" style="rounded=1;whiteSpace=wrap;html=1;" vertex="1" parent="1">
          <mxGeometry x="120" y="570" width="300" height="20" as="geometry" />
        </mxCell>
        <mxCell id="5uK22Rdv5_EadQjcborz-41" value="" style="rounded=1;whiteSpace=wrap;html=1;" vertex="1" parent="1">
          <mxGeometry x="120" y="280" width="300" height="20" as="geometry" />
        </mxCell>
        <mxCell id="5uK22Rdv5_EadQjcborz-42" value="" style="rounded=1;whiteSpace=wrap;html=1;" vertex="1" parent="1">
          <mxGeometry x="440" y="280" width="300" height="20" as="geometry" />
        </mxCell>
        <mxCell id="5uK22Rdv5_EadQjcborz-44" value="Footer" style="text;html=1;align=center;verticalAlign=middle;whiteSpace=wrap;rounded=0;" vertex="1" parent="1">
          <mxGeometry x="560" y="275" width="60" height="30" as="geometry" />
        </mxCell>
        <mxCell id="5uK22Rdv5_EadQjcborz-45" value="Footer" style="text;html=1;align=center;verticalAlign=middle;whiteSpace=wrap;rounded=0;" vertex="1" parent="1">
          <mxGeometry x="240" y="275" width="60" height="30" as="geometry" />
        </mxCell>
        <mxCell id="5uK22Rdv5_EadQjcborz-47" value="" style="rounded=0;whiteSpace=wrap;html=1;" vertex="1" parent="1">
          <mxGeometry x="450" y="120" width="120" height="110" as="geometry" />
        </mxCell>
        <mxCell id="5uK22Rdv5_EadQjcborz-57" value="" style="rounded=0;whiteSpace=wrap;html=1;" vertex="1" parent="1">
          <mxGeometry x="280" y="235" width="120" height="40" as="geometry" />
        </mxCell>
        <mxCell id="5uK22Rdv5_EadQjcborz-58" value="" style="rounded=0;whiteSpace=wrap;html=1;" vertex="1" parent="1">
          <mxGeometry x="280" y="190" width="120" height="40" as="geometry" />
        </mxCell>
        <mxCell id="5uK22Rdv5_EadQjcborz-59" value="Text" style="text;html=1;align=center;verticalAlign=middle;whiteSpace=wrap;rounded=0;" vertex="1" parent="1">
          <mxGeometry x="160" y="145" width="60" height="30" as="geometry" />
        </mxCell>
        <mxCell id="5uK22Rdv5_EadQjcborz-60" value="Text" style="text;html=1;align=center;verticalAlign=middle;whiteSpace=wrap;rounded=0;" vertex="1" parent="1">
          <mxGeometry x="160" y="235" width="60" height="30" as="geometry" />
        </mxCell>
        <mxCell id="5uK22Rdv5_EadQjcborz-61" value="Text" style="text;html=1;align=center;verticalAlign=middle;whiteSpace=wrap;rounded=0;" vertex="1" parent="1">
          <mxGeometry x="160" y="190" width="60" height="30" as="geometry" />
        </mxCell>
        <mxCell id="5uK22Rdv5_EadQjcborz-62" value="Text" style="rounded=0;whiteSpace=wrap;html=1;" vertex="1" parent="1">
          <mxGeometry x="450" y="205" width="280" height="35" as="geometry" />
        </mxCell>
        <mxCell id="5uK22Rdv5_EadQjcborz-56" value="&amp;nbsp;CAR IMAGE" style="rounded=0;whiteSpace=wrap;html=1;" vertex="1" parent="1">
          <mxGeometry x="120" y="90" width="300" height="90" as="geometry" />
        </mxCell>
        <mxCell id="5uK22Rdv5_EadQjcborz-14" value="&lt;u&gt;Home&lt;/u&gt;" style="text;html=1;align=center;verticalAlign=middle;whiteSpace=wrap;rounded=0;" vertex="1" parent="1">
          <mxGeometry x="140" y="100" height="10" as="geometry" />
        </mxCell>
        <mxCell id="5uK22Rdv5_EadQjcborz-66" value="car&lt;div&gt;image&lt;/div&gt;" style="rounded=0;whiteSpace=wrap;html=1;align=center;" vertex="1" parent="1">
          <mxGeometry x="120" y="380" width="300" height="90" as="geometry" />
        </mxCell>
        <mxCell id="5uK22Rdv5_EadQjcborz-54" value="" style="endArrow=none;html=1;rounded=0;entryX=0;entryY=0;entryDx=0;entryDy=0;exitX=1;exitY=1;exitDx=0;exitDy=0;" edge="1" parent="1" source="5uK22Rdv5_EadQjcborz-52" target="5uK22Rdv5_EadQjcborz-52">
          <mxGeometry width="50" height="50" relative="1" as="geometry">
            <mxPoint x="400" y="410" as="sourcePoint" />
            <mxPoint x="280" y="470" as="targetPoint" />
            <Array as="points" />
          </mxGeometry>
        </mxCell>
        <mxCell id="5uK22Rdv5_EadQjcborz-53" value="" style="endArrow=none;html=1;rounded=0;entryX=1;entryY=0;entryDx=0;entryDy=0;exitX=0;exitY=1;exitDx=0;exitDy=0;" edge="1" parent="1" source="5uK22Rdv5_EadQjcborz-52" target="5uK22Rdv5_EadQjcborz-52">
          <mxGeometry width="50" height="50" relative="1" as="geometry">
            <mxPoint x="320" y="445" as="sourcePoint" />
            <mxPoint x="370" y="395" as="targetPoint" />
            <Array as="points" />
          </mxGeometry>
        </mxCell>
        <mxCell id="5uK22Rdv5_EadQjcborz-52" value="" style="rounded=1;whiteSpace=wrap;html=1;" vertex="1" parent="1">
          <mxGeometry x="294" y="390" width="120" height="60" as="geometry" />
        </mxCell>
        <mxCell id="5uK22Rdv5_EadQjcborz-39" value="Text" style="text;html=1;align=center;verticalAlign=middle;whiteSpace=wrap;rounded=0;" vertex="1" parent="1">
          <mxGeometry x="120" y="410" width="60" height="30" as="geometry" />
        </mxCell>
        <mxCell id="5uK22Rdv5_EadQjcborz-32" value="&lt;u&gt;Contact&lt;/u&gt;" style="text;html=1;align=center;verticalAlign=middle;whiteSpace=wrap;rounded=0;" vertex="1" parent="1">
          <mxGeometry x="150" y="390" height="10" as="geometry" />
        </mxCell>
        <mxCell id="5uK22Rdv5_EadQjcborz-23" value="&lt;u&gt;About&lt;/u&gt;" style="text;html=1;align=center;verticalAlign=middle;whiteSpace=wrap;rounded=0;" vertex="1" parent="1">
          <mxGeometry x="460" y="100" height="10" as="geometry" />
        </mxCell>
        <mxCell id="5uK22Rdv5_EadQjcborz-48" value="Text" style="text;html=1;align=center;verticalAlign=middle;whiteSpace=wrap;rounded=0;" vertex="1" parent="1">
          <mxGeometry x="480" y="135" width="60" height="30" as="geometry" />
        </mxCell>
        <mxCell id="5uK22Rdv5_EadQjcborz-67" value="" style="endArrow=none;html=1;rounded=0;entryX=0;entryY=0.545;entryDx=0;entryDy=0;entryPerimeter=0;" edge="1" parent="1" target="5uK22Rdv5_EadQjcborz-47">
          <mxGeometry width="50" height="50" relative="1" as="geometry">
            <mxPoint x="440" y="180" as="sourcePoint" />
            <mxPoint x="485" y="135" as="targetPoint" />
          </mxGeometry>
        </mxCell>
        <mxCell id="5uK22Rdv5_EadQjcborz-69" value="" style="endArrow=none;html=1;rounded=0;entryX=0;entryY=0.545;entryDx=0;entryDy=0;entryPerimeter=0;" edge="1" parent="1">
          <mxGeometry width="50" height="50" relative="1" as="geometry">
            <mxPoint x="515" y="324.94" as="sourcePoint" />
            <mxPoint x="525" y="324.94" as="targetPoint" />
            <Array as="points">
              <mxPoint x="525" y="324.94" />
            </Array>
          </mxGeometry>
        </mxCell>
        <mxCell id="5uK22Rdv5_EadQjcborz-71" value="" style="endArrow=none;html=1;rounded=0;entryX=1.015;entryY=0.565;entryDx=0;entryDy=0;entryPerimeter=0;exitX=1.006;exitY=0.537;exitDx=0;exitDy=0;exitPerimeter=0;" edge="1" parent="1" source="5uK22Rdv5_EadQjcborz-47" target="5uK22Rdv5_EadQjcborz-15">
          <mxGeometry width="50" height="50" relative="1" as="geometry">
            <mxPoint x="720" y="180" as="sourcePoint" />
            <mxPoint x="730" y="180" as="targetPoint" />
          </mxGeometry>
        </mxCell>
        <mxCell id="5uK22Rdv5_EadQjcborz-33" value="" style="rounded=1;whiteSpace=wrap;html=1;" vertex="1" parent="1">
          <mxGeometry x="600" y="110" width="120" height="80" as="geometry" />
        </mxCell>
        <mxCell id="5uK22Rdv5_EadQjcborz-34" value="" style="shape=umlActor;verticalLabelPosition=bottom;verticalAlign=top;html=1;outlineConnect=0;" vertex="1" parent="1">
          <mxGeometry x="645" y="120" width="30" height="60" as="geometry" />
        </mxCell>
        <mxCell id="5uK22Rdv5_EadQjcborz-72" value="&lt;font style=&quot;font-size: 7px;&quot;&gt;Car&amp;nbsp;&lt;/font&gt;&lt;div&gt;&lt;font style=&quot;font-size: 7px;&quot;&gt;image&lt;/font&gt;&lt;/div&gt;" style="text;html=1;align=center;verticalAlign=middle;whiteSpace=wrap;rounded=0;" vertex="1" parent="1">
          <mxGeometry x="560" y="130" width="60" height="30" as="geometry" />
        </mxCell>
      </root>
    </mxGraphModel>
  </diagram>
</mxfile>
